HIERARCHY
ROOT pelvis
{
  OFFSET 0 100 0
  CHANNELS 6 Xposition Yposition Zposition Zrotation Xrotation Yrotation
  JOINT pelvis_right_femur
  {
    OFFSET -10.78128 -3.44521 -0.5502486
    CHANNELS 3 Zrotation Xrotation Yrotation
    JOINT right_femur_tibia
    {
      OFFSET -0.8047443 -44.0398 -0.1307829
      CHANNELS 3 Zrotation Xrotation Yrotation
      JOINT right_tibia_foot
      {
        OFFSET 3.006224 -47.83518 -5
        CHANNELS 3 Zrotation Xrotation Yrotation
        End Site
        {
          OFFSET 0 -5 15
        }
      }
    }
  }
  JOINT pelvis_left_femur
  {
    OFFSET 10.78128 -3.44521 -0.5502486
    CHANNELS 3 Zrotation Xrotation Yrotation
    JOINT left_femur_tibia
    {
      OFFSET 0.8047443 -44.0398 -0.1307829
      CHANNELS 3 Zrotation Xrotation Yrotation
      JOINT left_tibia_foot
      {
        OFFSET -4.370144 -48.10324 -4.275266
        CHANNELS 3 Zrotation Xrotation Yrotation
        End Site
        {
          OFFSET 0 -5 15
        }
      }
    }
  }
  JOINT pelvis_spine1
  {
    OFFSET 0 6.468898 -3.129235
    CHANNELS 3 Zrotation Xrotation Yrotation
    JOINT spine1
    {
      OFFSET 0 23.15396 4.99043
      CHANNELS 3 Zrotation Xrotation Yrotation
      JOINT spine2
      {
        OFFSET 0 20.79997 -5.064912
        CHANNELS 3 Zrotation Xrotation Yrotation
        JOINT neck
        {
          OFFSET 0 14.38658 9.616178
          CHANNELS 3 Zrotation Xrotation Yrotation
          End Site
          {
            OFFSET 0 20 0
          }
        }
      }
      JOINT right_manubrium
      {
        OFFSET -5.722621 16.35077 3.967754
        CHANNELS 3 Zrotation Xrotation Yrotation
        JOINT right_clavicle
        {
          OFFSET -13.16364 1.694482 -4.693211
          CHANNELS 3 Zrotation Xrotation Yrotation
          JOINT right_humerus
          {
            OFFSET -28.5034 -0.3100689 -2.792744
            CHANNELS 3 Zrotation Xrotation Yrotation
            JOINT right_radius
            {
              OFFSET -25.15693 0.02248979 -1.271978
              CHANNELS 3 Zrotation Xrotation Yrotation
              End Site
              {
                OFFSET -15 0 0
              }
            }
          }
        }
      }
      JOINT left_manubrium
      {
        OFFSET 5.722621 16.35077 3.967754
        CHANNELS 3 Zrotation Xrotation Yrotation
        JOINT left_clavicle
        {
          OFFSET 13.16364 1.694482 -4.693211
          CHANNELS 3 Zrotation Xrotation Yrotation
          JOINT left_humerus
          {
            OFFSET 29.39168 -1.063119 -2.237045
            CHANNELS 3 Zrotation Xrotation Yrotation
            JOINT left_radius
            {
              OFFSET 24.59957 -0.9528479 0.9047498
              CHANNELS 3 Zrotation Xrotation Yrotation
              End Site
              {
                OFFSET 15 -0 -0
              }
            }
          }
        }
      }
    }
  }
}
MOTION
Frames: 23
Frame Time: 0.0416666666667
0 103.5113 0 1.006947 -0.7633504 0.02246227 3.163679 -17.16114 8.131947 -0 36.19006 -0 -4.982218 -15.81976 -3.432482 -6.857723 11.81031 -23.23427 -0 4.929604 -0 4.773456 -18.85618 24.67212 -1.9431 -3.127646 4.902003 2.770223 9.873681 -8.184121 1.776509 20.28539 6.534603 3.273774 -26.50079 9.727716 5.939049 -19.11412 10.6241 86.00477 34.23652 -20.3015 -0 0 15.38064 -6.575425 9.142025 2.917844 7.732504 -21.61152 0.1196118 -94.071 23.72976 21.60629 0 0 -15.14483 12.44518 16.81962 0.2480525
0.2164033 103.6736 1.606585 -0.106732 -0.8092734 -0.1070236 4.443307 -20.13459 8.471237 -0 37.1963 -0 -5.67402 -14.15957 -3.978305 -5.790948 11.8422 -22.60115 -0 5.829674 -0 1.992336 -20.52686 23.30097 -1.942735 -2.965666 4.86468 2.847089 9.840062 -8.170232 1.678328 20.31928 6.601939 3.296814 -26.51353 9.634369 5.89459 -18.97266 10.72081 85.97573 34.43239 -20.15251 -0 0 15.02782 -6.967204 9.264881 3.297557 7.60395 -21.57713 0.05679686 -93.79456 23.52539 21.34693 0 0 -15.25574 12.36997 16.3637 0.208287
0.4346393 103.6417 3.581019 -0.07768436 0.6715878 -0.1600494 5.104623 -24.12138 7.993528 -0 32.01697 -0 -5.522628 -12.96296 -3.21229 -6.193266 12.00164 -21.81668 -0 5.311405 -0 5.398108 -20.68421 24.23119 -1.653633 -2.764637 4.410758 3.184246 9.621013 -8.55305 1.677593 19.68595 6.948024 3.641616 -27.08986 9.789118 5.984171 -18.52502 10.86257 86.27684 33.73155 -21.04732 -0 0 14.72155 -6.680642 9.587829 2.998892 8.158258 -21.90516 0.4348183 -93.58294 22.98022 20.47435 0 0 -15.81402 12.48318 16.36656 -0.1529636
0.6577285 103.4092 5.957888 -0.3900724 1.69637 -0.14113 5.932955 -28.03123 7.484386 -0 27.84606 -0 -5.837754 -11.01937 -2.727526 -6.167515 12.37421 -20.79434 -0 5.628674 -0 6.910751 -21.32863 24.10184 -1.460497 -2.545719 4.066673 3.460915 9.4203 -8.813985 1.620213 19.25402 7.241774 3.906015 -27.49991 9.851473 6.001681 -18.13627 11.00388 86.44004 33.3632 -21.55171 -0 0 14.31877 -6.735053 9.884922 3.027795 8.499444 -22.12816 0.6854495 -93.25399 22.48521 19.66951 0 0 -16.33323 12.51829 16.10081 -0.4375966
0.8564853 102.9884 8.97683 -0.5495303 2.334441 0.03211422 6.312885 -31.1607 5.947625 -0 22.89888 -0 -6.664952 -8.163109 -1.793589 -6.253634 13.21091 -19.24285 -0 6.977795 -0 8.648066 -21.31413 23.41579 -1.315255 -2.384375 3.797643 3.671229 9.247632 -9.016759 1.575666 18.91819 7.469623 4.115106 -27.80929 9.894653 6.004693 -17.83647 11.10433 86.55193 33.07332 -21.92757 -0 0 14.01839 -6.804104 10.11736 3.063051 8.775364 -22.30507 0.8882045 -93.00251 22.12354 19.04099 0 0 -16.75035 12.50538 15.9097 -0.6199226
1.027472 102.5016 12.74317 -0.8630954 2.761401 0.3863537 6.763954 -33.61775 4.503582 -0 18.6717 -0 -7.579005 -4.978979 -0.9607608 -6.131373 14.17656 -17.47641 -0 9.696658 -0 9.151528 -20.98058 21.83312 -1.221383 -2.223988 3.595988 3.835538 9.111137 -9.154518 1.508293 18.70944 7.643769 4.265007 -27.99788 9.876703 5.983649 -17.57506 11.20032 86.63461 32.94641 -22.14939 -0 0 13.67106 -7.032583 10.32473 3.242071 8.917904 -22.42447 0.9891453 -92.72382 21.83975 18.50267 0 0 -17.11206 12.40072 15.62695 -0.6865303
1.164146 102.1167 17.34768 -1.317095 2.852693 0.8968619 7.324218 -34.75653 3.25328 -0 15.59287 -0 -8.514057 -1.804099 -0.2749995 -5.771483 15.08389 -15.4795 -0 14.34788 -0 8.330469 -19.81227 19.31476 -1.187359 -2.09062 3.493859 3.924752 9.04359 -9.209457 1.433288 18.65854 7.726796 4.329633 -28.02783 9.794138 5.951375 -17.39234 11.27741 86.69346 32.97253 -22.21476 -0 0 13.34271 -7.370823 10.47565 3.515464 8.902826 -22.4672 0.963963 -92.4862 21.69578 18.16991 0 0 -17.33038 12.1908 15.3286 -0.5863256
1.278909 102.0567 22.75204 -1.944832 2.757978 1.475525 8.200584 -34.29876 2.782581 -0 14.21143 -0 -9.14531 0.5571975 -0.001332146 -5.107142 15.43543 -13.56485 -0 20.95884 -0 5.960862 -17.65127 16.12385 -1.212549 -1.971584 3.494269 3.93803 9.052958 -9.177433 1.344779 18.77197 7.717005 4.308283 -27.88544 9.633005 5.908156 -17.28107 11.34473 86.73051 33.15441 -22.11599 -0 0 13.01681 -7.857278 10.58067 3.911773 8.712701 -22.4268 0.7976502 -92.27758 21.68558 18.04325 0 0 -17.39671 11.84869 14.98545 -0.2933074
1.393733 102.5044 28.78873 -2.644998 2.500186 1.962329 9.229451 -32.00505 3.089742 -0 14.42432 -0 -9.391929 1.450687 -0.2038949 -4.20034 14.69149 -11.92468 -0 29.33365 -0 2.532211 -14.38392 12.87563 -1.299418 -1.872943 3.611558 3.862784 9.144948 -9.04741 1.248344 19.05252 7.606505 4.199992 -27.55875 9.391761 5.854644 -17.25977 11.39926 86.72092 33.47448 -21.82193 -0 0 12.7419 -8.492505 10.63343 4.423946 8.345379 -22.29056 0.4941182 -92.12563 21.82302 18.16879 0 0 -17.26965 11.363 14.61637 0.2146857
1.531055 103.5273 35.17154 -3.191442 2.109264 2.178539 9.96106 -28.05755 3.795308 -0 15.45252 -0 -9.335322 0.5948448 -0.7549367 -3.28086 12.40841 -10.70773 -0 38.67395 -0 -1.028135 -10.47216 10.36424 -1.445593 -1.792497 3.846194 3.697239 9.305054 -8.815803 1.145911 19.48014 7.407492 4.021399 -27.05659 9.074556 5.784301 -17.33468 11.44238 86.62172 33.9025 -21.29084 -0 0 12.5629 -9.296041 10.64031 5.060067 7.821315 -22.05436 0.08047426 -92.03667 22.09421 18.5455 0 0 -16.94553 10.72694 14.21657 0.9390819
1.692398 105.0249 41.59461 -3.267716 1.460453 2.004686 9.905982 -22.94195 4.291928 -0 16.06084 -0 -9.144847 -1.456703 -1.383219 -2.684738 8.568278 -9.838333 -0 47.87782 -0 -3.719316 -6.865716 9.139103 -1.644845 -1.731039 4.190105 3.445978 9.503255 -8.485386 1.041919 20.01485 7.144505 3.800053 -26.40999 8.697844 5.687927 -17.51223 11.47275 86.37324 34.39029 -20.47574 -0 0 12.54314 -10.26944 10.60701 5.814639 7.185551 -21.72183 -0.3916177 -92.01734 22.47205 19.15174 0 0 -16.4405 9.953493 13.79006 1.854735
1.846059 106.7737 47.83931 -2.676779 0.347591 1.46881 8.962109 -17.18562 4.290114 -0 15.42192 -0 -8.804545 -3.576955 -1.915592 -2.58049 3.646083 -9.10741 -0 55.65928 -0 -5.077837 -4.507489 9.294301 -1.88555 -1.686374 4.623184 3.123933 9.699184 -8.068813 0.9392355 20.60067 6.853623 3.570699 -25.66869 8.28455 5.555533 -17.78977 11.49049 85.91756 34.87895 -19.34175 -0 0 12.73584 -11.40555 10.54347 6.678431 6.498477 -21.30819 -0.858838 -92.0595 22.91098 19.93041 0 0 -15.80252 9.070456 13.33484 2.913056
1.941895 108.5103 53.81021 -1.556387 -1.320702 0.7533816 7.513198 -11.09691 3.985611 -0 13.70206 -0 -8.138729 -4.992831 -2.357861 -2.736983 -1.7509 -8.301126 -0 60.60094 -0 -5.385211 -3.711924 10.62241 -2.153275 -1.655635 5.121194 2.750956 9.854992 -7.584231 0.8397048 21.18022 6.570948 3.364288 -24.88746 7.858731 5.38016 -18.16051 11.49615 85.21285 35.30843 -17.87325 -0 0 13.17895 -12.68434 10.45884 7.636077 5.819466 -20.83506 -1.263008 -92.14713 23.35995 20.81232 0 0 -15.09202 8.116369 12.84907 4.054154
1.953379 109.9774 59.49773 -0.3512287 -3.291451 0.06747774 6.140849 -4.903218 3.739926 -0 11.71792 -0 -7.111536 -5.983017 -2.723384 -2.643008 -7.279196 -7.304968 -0 61.24404 -0 -5.298785 -4.102101 12.7616 -2.432864 -1.634669 5.662711 2.346286 9.944572 -7.050161 0.7437653 21.70517 6.325168 3.20212 -24.11234 7.439628 5.158801 -18.61633 11.49169 84.24171 35.62413 -16.07428 -0 0 13.89209 -14.08344 10.36136 8.672959 5.194577 -20.32467 -1.563202 -92.2594 23.76902 21.73287 0 0 -14.36697 7.131246 12.3272 5.220576
1.913164 110.9442 64.95229 0.4738846 -5.021435 -0.5145607 5.245119 1.029004 3.689932 -0 10.15257 -0 -5.927654 -7.48392 -2.876645 -1.890124 -12.81282 -6.107222 -0 56.77165 -0 -5.291876 -5.006473 15.19577 -2.707647 -1.618579 6.230251 1.926662 9.956543 -6.485027 0.6519944 22.13709 6.135234 3.095505 -23.37804 7.042035 4.893447 -19.14774 11.48038 83.01916 35.77542 -13.97829 -0 0 14.87763 -15.57579 10.2591 9.77104 4.656917 -19.79826 -1.736748 -92.37713 24.09138 22.6406 0 0 -13.67415 6.155633 11.76403 6.359569
1.903585 111.261 70.29136 0.7055927 -5.983546 -1.055957 4.872098 6.236626 3.720752 -0 9.233692 -0 -4.811269 -10.09934 -2.614307 -0.4655945 -18.13446 -4.773226 -0 47.86927 -0 -5.435888 -5.841742 17.32914 -2.956054 -1.599861 6.803816 1.509346 9.896592 -5.912804 0.56652 22.4447 6.010689 3.047624 -22.71088 6.678412 4.594448 -19.73466 11.46832 81.61352 35.71508 -11.6808 -0 0 16.10538 -17.11985 10.16421 10.89889 4.230654 -19.27914 -1.780616 -92.4845 24.28265 23.49149 0 0 -13.05079 5.230695 11.1584 7.421983
2.010228 110.9315 75.68908 0.463222 -5.960161 -1.627917 4.761567 10.39668 3.683135 -0 8.949098 -0 -3.813401 -13.49096 -1.873471 1.218427 -22.81591 -3.467414 -0 36.84074 -0 -5.535386 -6.291443 18.70647 -3.151111 -1.56645 7.35411 1.114497 9.792031 -5.367818 0.4920562 22.6078 5.949837 3.053355 -22.12758 6.359268 4.284966 -20.33522 11.46618 80.16685 35.41203 -9.372376 -0 0 17.48806 -18.64973 10.09581 12.00244 3.928562 -18.7944 -1.718772 -92.56958 24.30893 24.24353 0 0 -12.52595 4.392346 10.51676 8.369264
2.284032 110.1264 81.33237 0.08644883 -5.159195 -2.235065 4.527498 13.50544 3.554684 -0 9.400518 -0 -2.874298 -16.51425 -0.8374627 2.518072 -26.36297 -2.48235 -0 26.67144 -0 -5.379914 -6.351277 19.22772 -3.26667 -1.502513 7.841915 0.7631828 9.691536 -4.892145 0.4356319 22.62698 5.938445 3.099051 -21.62946 6.091454 4.000702 -20.88381 11.48891 78.88156 34.87344 -7.326185 -0 0 18.87281 -20.07896 10.07815 13.00781 3.744985 -18.3719 -1.606603 -92.62246 24.16232 24.85543 0 0 -12.1212 3.659983 9.853228 9.187061
2.734428 109.1168 87.37047 -0.08526504 -4.108241 -2.843016 3.886261 15.83212 3.43957 -0 10.97496 -0 -1.984684 -17.87684 0.1295041 2.877049 -28.43697 -2.15029 -0 19.63083 -0 -4.942646 -6.262901 19.17311 -3.288113 -1.394262 8.224847 0.473085 9.651263 -4.526083 0.4046189 22.52798 5.954066 3.165614 -21.20188 5.877403 3.78071 -21.30505 11.55049 77.95898 34.15593 -5.821032 -0 0 20.06987 -21.31883 10.13286 13.83841 3.655245 -18.03614 -1.518653 -92.62998 23.87165 25.28492 0 0 -11.85546 3.031771 9.188354 9.889067
3.338797 108.1888 93.87707 0.1075418 -3.362621 -3.39949 2.802013 17.62658 3.471177 -0 14.21391 -0 -1.199869 -16.80934 0.6775331 2.117311 -28.95123 -2.631829 -0 16.40547 -0 -4.382784 -6.32165 18.97111 -3.219663 -1.237632 8.467369 0.2562808 9.711687 -4.298304 0.4037544 22.35345 5.975257 3.234398 -20.82375 5.716351 3.653079 -21.53704 11.65592 77.52605 33.34956 -5.043022 -0 0 20.90759 -22.30154 10.27017 14.43768 3.626264 -17.8066 -1.521401 -92.56938 23.49551 25.48523 0 0 -11.75265 2.493586 8.547792 10.50199
4.054072 107.5929 100.8278 0.6100129 -3.222849 -3.812383 1.475825 18.79812 3.711728 -0 19.50274 -0 -0.5252472 -13.32825 0.6512895 0.5056759 -27.98071 -3.772734 -0 16.25738 -0 -3.858919 -6.677912 18.88808 -3.082293 -1.041324 8.547719 0.1206528 9.881818 -4.222234 0.4330821 22.14696 5.989016 3.292074 -20.48034 5.605928 3.625949 -21.54717 11.79682 77.60434 32.54495 -5.038028 -0 0 21.27653 -22.99359 10.48589 14.78304 3.630618 -17.69813 -1.650094 -92.4076 23.09967 25.40553 0 0 -11.84407 2.034033 7.960103 11.0434
4.830997 107.5199 108.0956 1.236696 -3.659469 -3.956121 0.2362993 18.86208 4.097539 -0 26.80058 -0 0.108778 -8.124189 0.091106 -1.437838 -25.62452 -5.183175 -0 17.79317 -0 -3.38125 -7.291995 18.90613 -2.90427 -0.8227212 8.458359 0.0724957 10.14111 -4.29929 0.4880568 21.94024 5.992121 3.331999 -20.16927 5.5427 3.689657 -21.33165 11.95459 78.13458 31.80791 -5.738451 -0 0 21.13769 -23.39415 10.76621 14.88424 3.653968 -17.72113 -1.904764 -92.10777 22.73389 24.99786 0 0 -12.16303 1.652405 7.452336 11.51119
5.628406 108.0694 115.4651 1.778247 -4.436 -3.727076 -0.5957472 17.20564 4.455699 -0 35.4941 -0 0.7276717 -2.340089 -0.8795659 -3.211782 -21.98062 -6.458378 -0 19.65651 -0 -2.850527 -8.04279 18.84444 -2.711703 -0.6011786 8.202077 0.1176407 10.45215 -4.524449 0.5611765 21.74862 5.988285 3.352919 -19.89838 5.522256 3.824893 -20.90502 12.10723 79.02255 31.17237 -7.023295 -0 0 20.50468 -23.52491 11.09507 14.7722 3.694792 -17.88107 -2.261019 -91.6381 22.42093 24.22566 0 0 -12.73773 1.356618 7.045004 11.88792
